<svg width="595" height="421" viewBox="0 0 595 421" fill="none" xmlns="http://www.w3.org/2000/svg">
<rect width="595" height="420.457" transform="translate(0 0.279297)" fill="black"/>
<path d="M306.828 156.449H288.38H270.507V157.484C271.657 165.357 278.438 171.449 286.599 171.449H306.713C312.632 171.449 317.402 176.218 317.402 182.138V183.747C317.402 189.666 312.632 194.436 306.713 194.436H286.656H286.599C278.438 194.436 271.599 200.528 270.507 208.401C270.392 209.148 270.335 209.953 270.335 210.757V229.262H288.38V217.022C288.38 212.826 291.771 209.436 295.966 209.436H307.517C314.816 209.436 321.482 206.447 326.252 201.677C331.425 196.505 334.528 189.092 333.953 181.046C333.034 167.081 320.908 156.449 306.828 156.449Z" fill="white"/>
<path d="M289.701 192.08H300.965C302.804 189.839 304.011 186.908 304.011 183.632C304.011 179.494 302.172 175.874 299.356 173.632H289.643C289.586 173.632 290.908 182.77 289.701 192.08Z" fill="white"/>
<path d="M276.196 192.08H268.323C267.001 189.839 266.196 186.908 266.196 183.632C266.196 179.494 267.518 175.874 269.472 173.632H276.253C276.253 173.632 275.334 182.77 276.196 192.08Z" fill="white"/>
<path d="M262.921 192.08H259.99C259.473 189.839 259.186 186.908 259.186 183.632C259.186 179.494 259.703 175.874 260.45 173.632H263.036C262.979 173.632 260.45 182.885 262.921 192.08Z" fill="white"/>
<path d="M314.107 179.105C314.52 178.39 313.517 177.039 311.868 176.087C310.219 175.135 308.547 174.942 308.135 175.657C307.722 176.371 308.725 177.722 310.374 178.675C312.023 179.627 313.694 179.819 314.107 179.105Z" fill="white"/>
<path d="M311.87 190.155C313.519 189.203 314.522 187.852 314.109 187.137C313.696 186.423 312.025 186.615 310.376 187.567C308.727 188.519 307.724 189.871 308.137 190.585C308.549 191.3 310.221 191.107 311.87 190.155Z" fill="white"/>
<path d="M235.877 251.726C235.877 253.289 236.854 254.332 238.222 254.332C239.591 254.332 240.568 253.289 240.568 251.726V239.216C240.568 237.653 239.591 236.61 238.222 236.61C236.854 236.61 235.877 237.653 235.877 239.216V251.726ZM238.222 229.574C236.822 229.574 235.584 230.811 235.584 232.147C235.584 233.58 236.822 234.851 238.222 234.851C239.688 234.851 240.861 233.613 240.861 232.147C240.861 230.779 239.623 229.574 238.222 229.574ZM252.011 251.791C252.011 253.42 253.053 254.332 254.454 254.332C255.855 254.332 256.897 253.42 256.897 251.791V246.448H260.513C264.976 246.448 268.658 243.484 268.658 238.728C268.658 234.069 265.107 230.942 260.318 230.942H254.552C252.923 230.942 252.011 231.952 252.011 233.483V251.791ZM256.897 235.242H260.22C262.273 235.242 263.576 236.74 263.576 238.695C263.576 240.65 262.273 242.148 260.22 242.148H256.897V235.242ZM286.01 239.672C286.01 238.467 286.01 236.61 283.762 236.61C282.622 236.61 281.645 237.425 281.515 238.565C280.472 237.099 278.778 236.415 277.052 236.415C272.751 236.415 269.298 240.356 269.298 245.504C269.298 250.781 272.654 254.527 277.052 254.527C278.843 254.527 280.309 253.778 281.515 252.345C281.84 253.583 282.394 254.332 283.762 254.332C286.01 254.332 286.01 252.475 286.01 251.27V239.672ZM273.989 245.504C273.989 243.256 275.13 240.715 277.703 240.715C280.179 240.715 281.319 243.256 281.319 245.504C281.319 247.751 280.146 250.227 277.703 250.227C275.162 250.227 273.989 247.751 273.989 245.504ZM288.623 251.726C288.623 253.289 289.601 254.332 290.969 254.332C292.337 254.332 293.315 253.289 293.315 251.726V244.526C293.315 242.669 294.748 242.05 296.149 241.399C297.55 240.747 298.95 240.65 298.95 239.119C298.95 237.425 297.81 236.61 296.67 236.61C295.204 236.61 294.259 237.262 293.38 238.565H293.315C293.315 237.066 292.272 236.61 291.034 236.61C289.861 236.61 288.623 237.392 288.623 238.956V251.726ZM299.537 251.726C299.537 253.289 300.514 254.332 301.883 254.332C303.251 254.332 304.228 253.289 304.228 251.726V246.025H304.293L310.027 253.094C310.776 254.006 311.428 254.527 312.275 254.527C313.512 254.527 314.49 253.55 314.49 252.312C314.49 251.791 314.327 251.237 313.903 250.748L308.398 244.298L312.568 240.584C313.252 239.966 313.48 239.412 313.48 238.728C313.48 237.685 312.665 236.61 311.493 236.61C310.874 236.61 310.124 236.903 309.375 237.62L304.228 242.604V231.658C304.228 230.095 303.251 229.052 301.883 229.052C300.514 229.052 299.537 230.095 299.537 231.658V251.726ZM315.76 251.726C315.76 253.289 316.738 254.332 318.106 254.332C319.474 254.332 320.451 253.289 320.451 251.726V239.216C320.451 237.653 319.474 236.61 318.106 236.61C316.738 236.61 315.76 237.653 315.76 239.216V251.726ZM318.106 229.574C316.705 229.574 315.467 230.811 315.467 232.147C315.467 233.58 316.705 234.851 318.106 234.851C319.572 234.851 320.745 233.613 320.745 232.147C320.745 230.779 319.507 229.574 318.106 229.574ZM323.047 251.726C323.047 253.289 324.024 254.332 325.393 254.332C326.761 254.332 327.738 253.289 327.738 251.726V243.549C327.738 241.725 328.813 240.324 330.735 240.324C332.429 240.324 333.797 241.366 333.797 243.549V251.726C333.797 253.289 334.775 254.332 336.143 254.332C337.511 254.332 338.488 253.289 338.488 251.726V242.735C338.488 238.76 335.752 236.415 332.071 236.415C329.856 236.415 328.455 237.066 327.543 238.337C327.38 237.262 326.598 236.61 325.393 236.61C324.024 236.61 323.047 237.653 323.047 239.216V251.726ZM357.177 239.216C357.177 237.653 356.199 236.61 354.831 236.61C353.528 236.61 352.779 237.327 352.486 238.565C351.606 237.131 349.782 236.415 348.185 236.415C343.462 236.415 340.465 240.813 340.465 245.536C340.465 250.195 342.778 254.527 347.697 254.527C349.847 254.527 351.443 253.746 352.42 252.312H352.486V253.42C352.486 255.798 350.792 257.134 348.511 257.134C345.807 257.134 344.146 255.668 342.647 255.668C341.735 255.668 340.758 256.84 340.758 257.72C340.758 260.293 346.231 261.238 348.153 261.238C353.495 261.238 357.177 258.404 357.177 252.768V239.216ZM352.486 245.601C352.486 247.882 351.313 250.227 348.804 250.227C346.361 250.227 345.156 247.947 345.156 245.438C345.156 243.256 346.361 240.715 348.804 240.715C351.378 240.715 352.486 243.321 352.486 245.601Z" fill="white"/>
</svg>
