<svg width="595" height="421" viewBox="0 0 595 421" fill="none" xmlns="http://www.w3.org/2000/svg">
<rect width="595" height="420.457" transform="translate(0 0.139648)" fill="#FFD900"/>
<path d="M306.828 156.309H288.38H270.507V157.344C271.657 165.217 278.438 171.309 286.599 171.309H306.713C312.632 171.309 317.402 176.079 317.402 181.998V183.607C317.402 189.527 312.632 194.297 306.713 194.297H286.656H286.599C278.438 194.297 271.599 200.388 270.507 208.261C270.392 209.009 270.335 209.813 270.335 210.618V229.123H288.38V216.882C288.38 212.687 291.771 209.296 295.966 209.296H307.517C314.816 209.296 321.482 206.308 326.252 201.538C331.425 196.365 334.528 188.952 333.953 180.906C333.034 166.941 320.908 156.309 306.828 156.309Z" fill="#053361"/>
<path d="M289.701 191.94H300.965C302.804 189.699 304.011 186.768 304.011 183.492C304.011 179.355 302.172 175.734 299.356 173.493H289.643C289.586 173.493 290.908 182.63 289.701 191.94Z" fill="#053361"/>
<path d="M276.196 191.94H268.323C267.001 189.699 266.196 186.768 266.196 183.492C266.196 179.355 267.518 175.734 269.472 173.493H276.253C276.253 173.493 275.334 182.63 276.196 191.94Z" fill="#053361"/>
<path d="M262.921 191.94H259.99C259.473 189.699 259.186 186.768 259.186 183.492C259.186 179.355 259.703 175.734 260.45 173.493H263.036C262.979 173.493 260.45 182.745 262.921 191.94Z" fill="#053361"/>
<path d="M314.107 178.965C314.52 178.25 313.517 176.899 311.868 175.947C310.219 174.995 308.547 174.802 308.135 175.517C307.722 176.232 308.725 177.583 310.374 178.535C312.023 179.487 313.694 179.68 314.107 178.965Z" fill="#053361"/>
<path d="M311.87 190.016C313.519 189.063 314.522 187.712 314.109 186.998C313.696 186.283 312.025 186.476 310.376 187.428C308.727 188.38 307.724 189.731 308.137 190.446C308.549 191.16 310.221 190.968 311.87 190.016Z" fill="#053361"/>
<path d="M235.877 251.586C235.877 253.15 236.854 254.192 238.222 254.192C239.591 254.192 240.568 253.15 240.568 251.586V239.077C240.568 237.513 239.591 236.471 238.222 236.471C236.854 236.471 235.877 237.513 235.877 239.077V251.586ZM238.222 229.434C236.822 229.434 235.584 230.672 235.584 232.008C235.584 233.441 236.822 234.711 238.222 234.711C239.688 234.711 240.861 233.473 240.861 232.008C240.861 230.639 239.623 229.434 238.222 229.434ZM252.011 251.651C252.011 253.28 253.053 254.192 254.454 254.192C255.855 254.192 256.897 253.28 256.897 251.651V246.309H260.513C264.976 246.309 268.658 243.344 268.658 238.588C268.658 233.93 265.107 230.802 260.318 230.802H254.552C252.923 230.802 252.011 231.812 252.011 233.343V251.651ZM256.897 235.102H260.22C262.273 235.102 263.576 236.601 263.576 238.555C263.576 240.51 262.273 242.009 260.22 242.009H256.897V235.102ZM286.01 239.533C286.01 238.327 286.01 236.471 283.762 236.471C282.622 236.471 281.645 237.285 281.515 238.425C280.472 236.959 278.778 236.275 277.052 236.275C272.751 236.275 269.298 240.217 269.298 245.364C269.298 250.641 272.654 254.388 277.052 254.388C278.843 254.388 280.309 253.639 281.515 252.205C281.84 253.443 282.394 254.192 283.762 254.192C286.01 254.192 286.01 252.335 286.01 251.13V239.533ZM273.989 245.364C273.989 243.116 275.13 240.575 277.703 240.575C280.179 240.575 281.319 243.116 281.319 245.364C281.319 247.612 280.146 250.088 277.703 250.088C275.162 250.088 273.989 247.612 273.989 245.364ZM288.623 251.586C288.623 253.15 289.601 254.192 290.969 254.192C292.337 254.192 293.315 253.15 293.315 251.586V244.387C293.315 242.53 294.748 241.911 296.149 241.259C297.55 240.608 298.95 240.51 298.95 238.979C298.95 237.285 297.81 236.471 296.67 236.471C295.204 236.471 294.259 237.122 293.38 238.425H293.315C293.315 236.927 292.272 236.471 291.034 236.471C289.861 236.471 288.623 237.252 288.623 238.816V251.586ZM299.537 251.586C299.537 253.15 300.514 254.192 301.883 254.192C303.251 254.192 304.228 253.15 304.228 251.586V245.885H304.293L310.027 252.954C310.776 253.867 311.428 254.388 312.275 254.388C313.512 254.388 314.49 253.411 314.49 252.173C314.49 251.651 314.327 251.098 313.903 250.609L308.398 244.159L312.568 240.445C313.252 239.826 313.48 239.272 313.48 238.588C313.48 237.546 312.665 236.471 311.493 236.471C310.874 236.471 310.124 236.764 309.375 237.48L304.228 242.465V231.519C304.228 229.955 303.251 228.913 301.883 228.913C300.514 228.913 299.537 229.955 299.537 231.519V251.586ZM315.76 251.586C315.76 253.15 316.738 254.192 318.106 254.192C319.474 254.192 320.451 253.15 320.451 251.586V239.077C320.451 237.513 319.474 236.471 318.106 236.471C316.738 236.471 315.76 237.513 315.76 239.077V251.586ZM318.106 229.434C316.705 229.434 315.467 230.672 315.467 232.008C315.467 233.441 316.705 234.711 318.106 234.711C319.572 234.711 320.745 233.473 320.745 232.008C320.745 230.639 319.507 229.434 318.106 229.434ZM323.047 251.586C323.047 253.15 324.024 254.192 325.393 254.192C326.761 254.192 327.738 253.15 327.738 251.586V243.409C327.738 241.585 328.813 240.184 330.735 240.184C332.429 240.184 333.797 241.227 333.797 243.409V251.586C333.797 253.15 334.775 254.192 336.143 254.192C337.511 254.192 338.488 253.15 338.488 251.586V242.595C338.488 238.621 335.752 236.275 332.071 236.275C329.856 236.275 328.455 236.927 327.543 238.197C327.38 237.122 326.598 236.471 325.393 236.471C324.024 236.471 323.047 237.513 323.047 239.077V251.586ZM357.177 239.077C357.177 237.513 356.199 236.471 354.831 236.471C353.528 236.471 352.779 237.187 352.486 238.425C351.606 236.992 349.782 236.275 348.185 236.275C343.462 236.275 340.465 240.673 340.465 245.397C340.465 250.055 342.778 254.388 347.697 254.388C349.847 254.388 351.443 253.606 352.42 252.173H352.486V253.28C352.486 255.658 350.792 256.994 348.511 256.994C345.807 256.994 344.146 255.528 342.647 255.528C341.735 255.528 340.758 256.701 340.758 257.58C340.758 260.154 346.231 261.099 348.153 261.099C353.495 261.099 357.177 258.264 357.177 252.629V239.077ZM352.486 245.462C352.486 247.742 351.313 250.088 348.804 250.088C346.361 250.088 345.156 247.807 345.156 245.299C345.156 243.116 346.361 240.575 348.804 240.575C351.378 240.575 352.486 243.181 352.486 245.462Z" fill="#053361"/>
</svg>
