<svg width="114" height="114" viewBox="0 0 114 114" fill="none" xmlns="http://www.w3.org/2000/svg">
<g clip-path="url(#clip0)">
<path d="M7.59961 91.1H7.49961V91.2V94.9999V95.0999H7.59961H56.9996H57.0996V94.9999V91.2V91.1H56.9996H7.59961Z" fill="#053361" stroke="#053361" stroke-width="0.2"/>
<path d="M26.5001 102.6C26.5001 105.803 29.0971 108.4 32.3001 108.4C35.5031 108.4 38.1001 105.803 38.1001 102.6C38.1001 99.397 35.5031 96.8 32.3001 96.8C29.0971 96.8 26.5001 99.397 26.5001 102.6ZM30.5001 102.6C30.5001 101.606 31.3061 100.8 32.3001 100.8C33.2941 100.8 34.1001 101.606 34.1001 102.6C34.1001 103.594 33.2941 104.4 32.3001 104.4C31.3061 104.4 30.5001 103.594 30.5001 102.6Z" fill="#053361" stroke="#053361" stroke-width="0.2"/>
<path d="M9.5 3.9H13.2V5.7C13.2 8.90303 15.797 11.5 19 11.5H45.6C48.803 11.5 51.4 8.90303 51.4 5.7V3.9H55.1C58.1926 3.9 60.7 6.40743 60.7 9.5V22.8V22.9H60.8H64.6H64.7V22.8V9.5V9.49988C64.6934 4.20026 60.3997 -0.0934375 55.1001 -0.1H55.1L9.5 -0.1L9.49988 -0.0999999C4.20026 -0.0934375 -0.0934375 4.20026 -0.1 9.49988V9.5L-0.1 104.5L-0.0999999 104.5C-0.0934375 109.8 4.20026 114.093 9.49988 114.1H9.5H55.1H55.1001C60.3997 114.093 64.6934 109.8 64.7 104.5V104.5V60.8V60.7H64.6H60.8H60.7V60.8V104.5C60.7 107.593 58.1926 110.1 55.1 110.1H9.5C6.40743 110.1 3.9 107.593 3.9 104.5V9.5C3.9 6.40743 6.40743 3.9 9.5 3.9ZM17.2 3.9H47.4V5.7C47.4 6.69404 46.594 7.5 45.6 7.5H19C18.006 7.5 17.2 6.69404 17.2 5.7V3.9Z" fill="#053361" stroke="#053361" stroke-width="0.2"/>
<path d="M26.6001 26.6V57H114V26.6H26.6001ZM110.2 53.2H30.4001V30.4H110.2V53.2Z" fill="#053361"/>
<path d="M36.1686 47.2458L39.8999 45.0906V49.4H43.6999V45.0906L47.4312 47.2458L49.3312 43.9542L45.5999 41.8L49.3312 39.6458L47.4312 36.3542L43.6999 38.5093V34.2H39.8999V38.5093L36.1686 36.3542L34.2686 39.6458L37.9999 41.8L34.2686 43.9542L36.1686 47.2458Z" fill="#FFD900"/>
<path d="M55.169 47.2458L58.9004 45.0906V49.4H62.7004V45.0906L66.4317 47.2458L68.3317 43.9542L64.6004 41.8L68.3317 39.6458L66.4317 36.3542L62.7004 38.5093V34.2H58.9004V38.5093L55.169 36.3542L53.269 39.6458L57.0004 41.8L53.269 43.9542L55.169 47.2458Z" fill="#FFD900"/>
<path d="M74.1686 47.2458L77.8999 45.0906V49.4H81.6999V45.0906L85.4313 47.2458L87.3313 43.9542L83.5999 41.8L87.3313 39.6458L85.4313 36.3542L81.6999 38.5093V34.2H77.8999V38.5093L74.1686 36.3542L72.2686 39.6458L75.9999 41.8L72.2686 43.9542L74.1686 47.2458Z" fill="#FFD900"/>
<path d="M93.1686 47.2458L96.8999 45.0906V49.4H100.7V45.0906L104.431 47.2458L106.331 43.9542L102.6 41.8L106.331 39.6458L104.431 36.3542L100.7 38.5093V34.2H96.8999V38.5093L93.1686 36.3542L91.2686 39.6458L94.9999 41.8L91.2686 43.9542L93.1686 47.2458Z" fill="#FFD900"/>
</g>
<defs>
<clipPath id="clip0">
<rect width="114" height="114" fill="white"/>
</clipPath>
</defs>
</svg>
