<svg width="28" height="28" viewBox="0 0 28 28" fill="none" xmlns="http://www.w3.org/2000/svg">
<path d="M14.1244 1C9.09323 1 5 5.09323 5 10.1244C5 16.448 14.1333 27.25 14.1333 27.25C14.1333 27.25 23.2487 16.137 23.2487 10.1244C23.2487 5.09323 19.1557 1 14.1244 1ZM16.8774 12.796C16.1183 13.5549 15.1214 13.9345 14.1244 13.9345C13.1275 13.9345 12.1303 13.5549 11.3715 12.796C9.85346 11.2781 9.85346 8.80819 11.3715 7.29013C12.1066 6.55473 13.0844 6.1497 14.1244 6.1497C15.1643 6.1497 16.142 6.55489 16.8774 7.29013C18.3954 8.80819 18.3954 11.2781 16.8774 12.796Z" fill="#6D747A"/>
</svg>
