<svg width="20" height="20" viewBox="0 0 20 20" fill="none" xmlns="http://www.w3.org/2000/svg">
<g clip-path="url(#clip0)">
<path d="M9.81834 0C6.90088 0 4.52734 2.37354 4.52734 5.291C4.52734 8.20845 6.90088 10.582 9.81834 10.582C12.7358 10.582 15.1093 8.20845 15.1093 5.291C15.1093 2.37354 12.7358 0 9.81834 0Z" fill="#6D747A"/>
<path d="M16.4013 14.0385C14.9528 12.5677 13.0325 11.7577 10.9941 11.7577H8.64255C6.60422 11.7577 4.68387 12.5677 3.23531 14.0385C1.79385 15.5021 1 17.4341 1 19.4786C1 19.8033 1.26322 20.0665 1.58789 20.0665H18.0488C18.3734 20.0665 18.6367 19.8033 18.6367 19.4786C18.6367 17.4341 17.8428 15.5021 16.4013 14.0385Z" fill="#6D747A"/>
</g>
<defs>
<clipPath id="clip0">
<rect width="20" height="20" fill="white"/>
</clipPath>
</defs>
</svg>
