<svg width="179" height="153" viewBox="0 0 179 153" fill="none" xmlns="http://www.w3.org/2000/svg">
<path d="M102.202 0H76.0959H50.8036V1.46387C52.4301 12.6055 62.0265 21.2261 73.5748 21.2261H102.039C110.416 21.2261 117.166 27.9762 117.166 36.3527V38.6299C117.166 47.0064 110.416 53.7565 102.039 53.7565H73.6562H73.5748C62.0265 53.7565 52.3487 62.3771 50.8036 73.5187C50.6409 74.576 50.5596 75.7145 50.5596 76.8531V103.04H76.0959V85.7176C76.0959 79.7808 80.8942 74.9826 86.831 74.9826H103.178C113.506 74.9826 122.94 70.7536 129.69 64.0036C137.009 56.6842 141.401 46.1932 140.587 34.8075C139.286 15.0453 122.126 0 102.202 0Z" fill="white"/>
<path d="M77.9667 50.4221H93.9066C96.5091 47.2504 98.2169 43.1028 98.2169 38.4672C98.2169 32.6117 95.6145 27.4882 91.6295 24.3165H77.8854C77.8041 24.3165 79.6746 37.2473 77.9667 50.4221Z" fill="white"/>
<path d="M58.8548 50.4221H47.7132C45.8427 47.2504 44.7041 43.1028 44.7041 38.4672C44.7041 32.6117 46.5746 27.4882 49.3397 24.3165H58.9362C58.9362 24.3165 57.6349 37.2473 58.8548 50.4221Z" fill="white"/>
<path d="M40.0684 50.4221H35.9208C35.1889 47.2504 34.7822 43.1028 34.7822 38.4672C34.7822 32.6117 35.5142 27.4882 36.5714 24.3165H40.2311C40.1497 24.3165 36.5714 37.41 40.0684 50.4221Z" fill="white"/>
<path d="M112.503 32.0606C113.087 31.0493 111.668 29.1371 109.334 27.7897C107.001 26.4422 104.635 26.1697 104.051 27.181C103.467 28.1923 104.886 30.1045 107.22 31.452C109.554 32.7994 111.919 33.0719 112.503 32.0606Z" fill="white"/>
<path d="M109.337 47.6985C111.671 46.351 113.09 44.4389 112.506 43.4275C111.922 42.4162 109.557 42.6887 107.223 44.0362C104.889 45.3836 103.47 47.2958 104.054 48.3071C104.638 49.3184 107.003 49.0459 109.337 47.6985Z" fill="white"/>
<path d="M1.79792 135.205C1.79792 137.418 3.18093 138.893 5.11714 138.893C7.05336 138.893 8.43637 137.418 8.43637 135.205V117.502C8.43637 115.29 7.05336 113.814 5.11714 113.814C3.18093 113.814 1.79792 115.29 1.79792 117.502V135.205ZM5.11714 103.857C3.13483 103.857 1.38301 105.609 1.38301 107.499C1.38301 109.527 3.13483 111.325 5.11714 111.325C7.19166 111.325 8.85127 109.573 8.85127 107.499C8.85127 105.562 7.09946 103.857 5.11714 103.857Z" fill="#FFD900"/>
<path d="M24.6295 135.297C24.6295 137.602 26.1047 138.893 28.087 138.893C30.0693 138.893 31.5445 137.602 31.5445 135.297V127.737H36.6617C42.9774 127.737 48.1868 123.542 48.1868 116.811C48.1868 110.219 43.1618 105.793 36.3851 105.793H28.2253C25.9203 105.793 24.6295 107.222 24.6295 109.389V135.297ZM31.5445 111.878H36.2468C39.1511 111.878 40.9951 113.999 40.9951 116.765C40.9951 119.531 39.1511 121.652 36.2468 121.652H31.5445V111.878ZM72.7428 118.148C72.7428 116.442 72.7428 113.814 69.5619 113.814C67.9484 113.814 66.5654 114.967 66.381 116.58C64.9057 114.506 62.5085 113.538 60.0652 113.538C53.98 113.538 49.0933 119.116 49.0933 126.4C49.0933 133.868 53.8417 139.17 60.0652 139.17C62.6007 139.17 64.6752 138.109 66.381 136.081C66.842 137.833 67.6257 138.893 69.5619 138.893C72.7428 138.893 72.7428 136.265 72.7428 134.56V118.148ZM55.7318 126.4C55.7318 123.219 57.3453 119.623 60.9872 119.623C64.4908 119.623 66.1044 123.219 66.1044 126.4C66.1044 129.581 64.4447 133.084 60.9872 133.084C57.3914 133.084 55.7318 129.581 55.7318 126.4ZM76.4409 135.205C76.4409 137.418 77.8239 138.893 79.7602 138.893C81.6964 138.893 83.0794 137.418 83.0794 135.205V125.017C83.0794 122.389 85.1078 121.513 87.0901 120.591C89.0724 119.669 91.0548 119.531 91.0548 117.364C91.0548 114.967 89.4412 113.814 87.8277 113.814C85.7532 113.814 84.4163 114.736 83.1716 116.58H83.0794C83.0794 114.46 81.6042 113.814 79.8524 113.814C78.1927 113.814 76.4409 114.921 76.4409 117.134V135.205ZM91.8849 135.205C91.8849 137.418 93.2679 138.893 95.2041 138.893C97.1404 138.893 98.5234 137.418 98.5234 135.205V127.137H98.6156L106.729 137.141C107.79 138.432 108.712 139.17 109.91 139.17C111.662 139.17 113.045 137.787 113.045 136.035C113.045 135.297 112.814 134.514 112.215 133.822L104.424 124.694L110.325 119.439C111.293 118.563 111.616 117.779 111.616 116.811C111.616 115.336 110.463 113.814 108.804 113.814C107.928 113.814 106.868 114.229 105.807 115.244L98.5234 122.297V106.807C98.5234 104.594 97.1404 103.119 95.2041 103.119C93.2679 103.119 91.8849 104.594 91.8849 106.807V135.205ZM114.843 135.205C114.843 137.418 116.226 138.893 118.162 138.893C120.098 138.893 121.481 137.418 121.481 135.205V117.502C121.481 115.29 120.098 113.814 118.162 113.814C116.226 113.814 114.843 115.29 114.843 117.502V135.205ZM118.162 103.857C116.18 103.857 114.428 105.609 114.428 107.499C114.428 109.527 116.18 111.325 118.162 111.325C120.237 111.325 121.896 109.573 121.896 107.499C121.896 105.562 120.144 103.857 118.162 103.857ZM125.155 135.205C125.155 137.418 126.538 138.893 128.474 138.893C130.41 138.893 131.793 137.418 131.793 135.205V123.634C131.793 121.052 133.314 119.07 136.034 119.07C138.432 119.07 140.368 120.545 140.368 123.634V135.205C140.368 137.418 141.751 138.893 143.687 138.893C145.623 138.893 147.006 137.418 147.006 135.205V122.481C147.006 116.857 143.134 113.538 137.924 113.538C134.79 113.538 132.807 114.46 131.516 116.258C131.286 114.736 130.18 113.814 128.474 113.814C126.538 113.814 125.155 115.29 125.155 117.502V135.205ZM173.452 117.502C173.452 115.29 172.069 113.814 170.133 113.814C168.289 113.814 167.229 114.829 166.814 116.58C165.569 114.552 162.988 113.538 160.729 113.538C154.044 113.538 149.803 119.761 149.803 126.446C149.803 133.038 153.076 139.17 160.037 139.17C163.08 139.17 165.339 138.063 166.722 136.035H166.814V137.602C166.814 140.968 164.417 142.858 161.19 142.858C157.363 142.858 155.012 140.783 152.892 140.783C151.601 140.783 150.218 142.443 150.218 143.687C150.218 147.329 157.963 148.666 160.683 148.666C168.243 148.666 173.452 144.656 173.452 136.68V117.502ZM166.814 126.538C166.814 129.765 165.154 133.084 161.605 133.084C158.147 133.084 156.441 129.857 156.441 126.308C156.441 123.219 158.147 119.623 161.605 119.623C165.246 119.623 166.814 123.311 166.814 126.538Z" fill="white"/>
</svg>
