<svg width="71" height="61" viewBox="0 0 71 61" fill="none" xmlns="http://www.w3.org/2000/svg">
<path d="M40.7423 0H30.3355H20.2528V0.583563C20.9012 5.02511 24.7268 8.46164 29.3305 8.46164H40.6775C44.0168 8.46164 46.7076 11.1525 46.7076 14.4918V15.3995C46.7076 18.7388 44.0168 21.4297 40.6775 21.4297H29.3629H29.3305C24.7268 21.4297 20.8688 24.8662 20.2528 29.3078C20.188 29.7292 20.1556 30.1831 20.1556 30.637V41.0763H30.3355V34.1708C30.3355 31.8041 32.2483 29.8913 34.6149 29.8913H41.1314C45.2487 29.8913 49.0095 28.2055 51.7003 25.5146C54.6181 22.5968 56.3688 18.4146 56.0446 13.8758C55.5259 5.99772 48.6853 0 40.7423 0Z" fill="#FFD900"/>
<path d="M31.0811 20.1004H37.4354C38.4728 18.8361 39.1537 17.1826 39.1537 15.3347C39.1537 13.0005 38.1162 10.958 36.5276 9.6936H31.0486C31.0162 9.6936 31.7619 14.8484 31.0811 20.1004Z" fill="#FFD900"/>
<path d="M23.4623 20.1004H19.0207C18.275 18.8361 17.8212 17.1826 17.8212 15.3347C17.8212 13.0005 18.5668 10.958 19.6691 9.6936H23.4947C23.4947 9.6936 22.976 14.8484 23.4623 20.1004Z" fill="#FFD900"/>
<path d="M15.9732 20.1004H14.3197C14.0279 18.8361 13.8658 17.1826 13.8658 15.3347C13.8658 13.0005 14.1576 10.958 14.5791 9.6936H16.038C16.0056 9.6936 14.5791 14.9132 15.9732 20.1004Z" fill="#FFD900"/>
<path d="M44.849 12.7808C45.0817 12.3776 44.5162 11.6154 43.5859 11.0782C42.6555 10.5411 41.7126 10.4324 41.4799 10.8356C41.2471 11.2387 41.8126 12.001 42.743 12.5382C43.6733 13.0753 44.6162 13.1839 44.849 12.7808Z" fill="#FFD900"/>
<path d="M43.5869 19.0147C44.5172 18.4775 45.0827 17.7153 44.8499 17.3121C44.6172 16.909 43.6743 17.0176 42.7439 17.5547C41.8136 18.0919 41.2481 18.8542 41.4808 19.2573C41.7136 19.6605 42.6565 19.5518 43.5869 19.0147Z" fill="#FFD900"/>
<path d="M0.711059 53.9636C0.711059 54.8387 1.25803 55.4221 2.02378 55.4221C2.78954 55.4221 3.33651 54.8387 3.33651 53.9636V46.9624C3.33651 46.0872 2.78954 45.5038 2.02378 45.5038C1.25803 45.5038 0.711059 46.0872 0.711059 46.9624V53.9636ZM2.02378 41.5656C1.23979 41.5656 0.546968 42.2584 0.546968 43.006C0.546968 43.8082 1.23979 44.5192 2.02378 44.5192C2.84424 44.5192 3.5006 43.8264 3.5006 43.006C3.5006 42.2402 2.80777 41.5656 2.02378 41.5656ZM9.74074 54C9.74074 54.9116 10.3242 55.4221 11.1082 55.4221C11.8921 55.4221 12.4756 54.9116 12.4756 54V51.0099H14.4994C16.9972 51.0099 19.0574 49.3508 19.0574 46.6889C19.0574 44.0817 17.0701 42.3314 14.39 42.3314H11.1629C10.2512 42.3314 9.74074 42.8966 9.74074 43.7535V54ZM12.4756 44.738H14.3353C15.4839 44.738 16.2132 45.5767 16.2132 46.6706C16.2132 47.7646 15.4839 48.6033 14.3353 48.6033H12.4756V44.738ZM28.7691 47.2176C28.7691 46.543 28.7691 45.5038 27.5111 45.5038C26.873 45.5038 26.326 45.9596 26.2531 46.5977C25.6696 45.7773 24.7215 45.3944 23.7552 45.3944C21.3486 45.3944 19.416 47.6005 19.416 50.4812C19.416 53.4348 21.2939 55.5315 23.7552 55.5315C24.758 55.5315 25.5785 55.1122 26.2531 54.31C26.4354 55.0028 26.7453 55.4221 27.5111 55.4221C28.7691 55.4221 28.7691 54.3829 28.7691 53.7083V47.2176ZM22.0414 50.4812C22.0414 49.2232 22.6795 47.801 24.1199 47.801C25.5055 47.801 26.1437 49.2232 26.1437 50.4812C26.1437 51.7392 25.4873 53.1249 24.1199 53.1249C22.6978 53.1249 22.0414 51.7392 22.0414 50.4812ZM30.2317 53.9636C30.2317 54.8387 30.7786 55.4221 31.5444 55.4221C32.3102 55.4221 32.8571 54.8387 32.8571 53.9636V49.9342C32.8571 48.895 33.6593 48.5486 34.4433 48.1839C35.2273 47.8193 36.0113 47.7646 36.0113 46.9077C36.0113 45.9596 35.3732 45.5038 34.7351 45.5038C33.9146 45.5038 33.3859 45.8684 32.8936 46.5977H32.8571C32.8571 45.759 32.2737 45.5038 31.5809 45.5038C30.9245 45.5038 30.2317 45.9414 30.2317 46.8165V53.9636ZM36.3396 53.9636C36.3396 54.8387 36.8866 55.4221 37.6524 55.4221C38.4181 55.4221 38.9651 54.8387 38.9651 53.9636V50.7729H39.0015L42.2104 54.7293C42.6298 55.2398 42.9944 55.5315 43.4685 55.5315C44.1613 55.5315 44.7083 54.9846 44.7083 54.2917C44.7083 54 44.6171 53.6901 44.3801 53.4166L41.2988 49.8066L43.6325 47.7281C44.0154 47.3817 44.1431 47.0718 44.1431 46.6889C44.1431 46.1054 43.6872 45.5038 43.0309 45.5038C42.6845 45.5038 42.2651 45.6679 41.8458 46.069L38.9651 48.8585V42.7325C38.9651 41.8573 38.4181 41.2739 37.6524 41.2739C36.8866 41.2739 36.3396 41.8573 36.3396 42.7325V53.9636ZM45.4193 53.9636C45.4193 54.8387 45.9663 55.4221 46.732 55.4221C47.4978 55.4221 48.0448 54.8387 48.0448 53.9636V46.9624C48.0448 46.0872 47.4978 45.5038 46.732 45.5038C45.9663 45.5038 45.4193 46.0872 45.4193 46.9624V53.9636ZM46.732 41.5656C45.948 41.5656 45.2552 42.2584 45.2552 43.006C45.2552 43.8082 45.948 44.5192 46.732 44.5192C47.5525 44.5192 48.2088 43.8264 48.2088 43.006C48.2088 42.2402 47.516 41.5656 46.732 41.5656ZM49.4975 53.9636C49.4975 54.8387 50.0445 55.4221 50.8102 55.4221C51.576 55.4221 52.1229 54.8387 52.1229 53.9636V49.3873C52.1229 48.3662 52.7246 47.5823 53.8003 47.5823C54.7484 47.5823 55.5142 48.1657 55.5142 49.3873V53.9636C55.5142 54.8387 56.0611 55.4221 56.8269 55.4221C57.5926 55.4221 58.1396 54.8387 58.1396 53.9636V48.9314C58.1396 46.7071 56.6081 45.3944 54.5478 45.3944C53.308 45.3944 52.5241 45.759 52.0136 46.4701C51.9224 45.8684 51.4848 45.5038 50.8102 45.5038C50.0445 45.5038 49.4975 46.0872 49.4975 46.9624V53.9636ZM68.5988 46.9624C68.5988 46.0872 68.0518 45.5038 67.2861 45.5038C66.5568 45.5038 66.1374 45.9049 65.9734 46.5977C65.4811 45.7955 64.4601 45.3944 63.5667 45.3944C60.923 45.3944 59.2456 47.8557 59.2456 50.4994C59.2456 53.1066 60.5401 55.5315 63.2932 55.5315C64.4965 55.5315 65.3899 55.094 65.9369 54.2917H65.9734V54.9116C65.9734 56.2426 65.0253 56.9901 63.749 56.9901C62.2357 56.9901 61.3059 56.1697 60.4672 56.1697C59.9567 56.1697 59.4097 56.826 59.4097 57.3183C59.4097 58.7586 62.4728 59.2874 63.5485 59.2874C66.5386 59.2874 68.5988 57.7012 68.5988 54.547V46.9624ZM65.9734 50.5359C65.9734 51.8121 65.317 53.1249 63.9131 53.1249C62.5457 53.1249 61.8711 51.8486 61.8711 50.4447C61.8711 49.2232 62.5457 47.801 63.9131 47.801C65.3535 47.801 65.9734 49.2596 65.9734 50.5359Z" fill="#FFD900"/>
</svg>
