<svg width="182" height="157" viewBox="0 0 182 157" fill="none" xmlns="http://www.w3.org/2000/svg">
<g filter="url(#filter0_d)">
<path d="M105.202 0H79.0959H53.8036V1.46387C55.4301 12.6055 65.0265 21.2261 76.5748 21.2261H105.039C113.416 21.2261 120.166 27.9762 120.166 36.3527V38.6299C120.166 47.0064 113.416 53.7565 105.039 53.7565H76.6562H76.5748C65.0265 53.7565 55.3487 62.3771 53.8036 73.5187C53.6409 74.576 53.5596 75.7145 53.5596 76.8531V103.04H79.0959V85.7176C79.0959 79.7808 83.8942 74.9826 89.831 74.9826H106.178C116.506 74.9826 125.94 70.7536 132.69 64.0036C140.009 56.6842 144.401 46.1932 143.587 34.8075C142.286 15.0453 125.126 0 105.202 0Z" fill="#053361"/>
<path d="M80.9667 50.4221H96.9066C99.5091 47.2504 101.217 43.1028 101.217 38.4672C101.217 32.6117 98.6145 27.4882 94.6295 24.3165H80.8854C80.8041 24.3165 82.6746 37.2473 80.9667 50.4221Z" fill="#053361"/>
<path d="M61.8548 50.4221H50.7132C48.8427 47.2504 47.7041 43.1028 47.7041 38.4672C47.7041 32.6117 49.5746 27.4882 52.3397 24.3165H61.9362C61.9362 24.3165 60.6349 37.2473 61.8548 50.4221Z" fill="#053361"/>
<path d="M43.0684 50.4221H38.9208C38.1889 47.2504 37.7822 43.1028 37.7822 38.4672C37.7822 32.6117 38.5142 27.4882 39.5714 24.3165H43.2311C43.1497 24.3165 39.5714 37.41 43.0684 50.4221Z" fill="#053361"/>
<path d="M115.503 32.0606C116.087 31.0493 114.668 29.1371 112.334 27.7897C110.001 26.4422 107.635 26.1697 107.051 27.181C106.467 28.1923 107.886 30.1045 110.22 31.4519C112.554 32.7994 114.919 33.0719 115.503 32.0606Z" fill="#053361"/>
<path d="M112.337 47.6985C114.671 46.351 116.09 44.4389 115.506 43.4276C114.922 42.4162 112.557 42.6887 110.223 44.0362C107.889 45.3836 106.47 47.2958 107.054 48.3071C107.638 49.3184 110.003 49.0459 112.337 47.6985Z" fill="#053361"/>
<path d="M4.79792 135.205C4.79792 137.418 6.18093 138.893 8.11714 138.893C10.0534 138.893 11.4364 137.418 11.4364 135.205V117.502C11.4364 115.29 10.0534 113.814 8.11714 113.814C6.18093 113.814 4.79792 115.29 4.79792 117.502V135.205ZM8.11714 103.857C6.13483 103.857 4.38301 105.609 4.38301 107.499C4.38301 109.527 6.13483 111.325 8.11714 111.325C10.1917 111.325 11.8513 109.573 11.8513 107.499C11.8513 105.562 10.0995 103.857 8.11714 103.857ZM27.6295 135.297C27.6295 137.602 29.1047 138.893 31.087 138.893C33.0693 138.893 34.5445 137.602 34.5445 135.297V127.737H39.6617C45.9774 127.737 51.1868 123.542 51.1868 116.811C51.1868 110.219 46.1618 105.793 39.3851 105.793H31.2253C28.9203 105.793 27.6295 107.222 27.6295 109.389V135.297ZM34.5445 111.878H39.2468C42.1511 111.878 43.9951 113.999 43.9951 116.765C43.9951 119.531 42.1511 121.652 39.2468 121.652H34.5445V111.878ZM75.7428 118.148C75.7428 116.442 75.7428 113.814 72.5619 113.814C70.9484 113.814 69.5654 114.967 69.381 116.58C67.9057 114.506 65.5085 113.538 63.0652 113.538C56.98 113.538 52.0933 119.116 52.0933 126.4C52.0933 133.868 56.8417 139.17 63.0652 139.17C65.6007 139.17 67.6752 138.109 69.381 136.081C69.842 137.833 70.6257 138.893 72.5619 138.893C75.7428 138.893 75.7428 136.265 75.7428 134.56V118.148ZM58.7318 126.4C58.7318 123.219 60.3453 119.623 63.9872 119.623C67.4908 119.623 69.1044 123.219 69.1044 126.4C69.1044 129.581 67.4447 133.084 63.9872 133.084C60.3914 133.084 58.7318 129.581 58.7318 126.4ZM79.4409 135.205C79.4409 137.418 80.8239 138.893 82.7602 138.893C84.6964 138.893 86.0794 137.418 86.0794 135.205V125.017C86.0794 122.389 88.1078 121.513 90.0901 120.591C92.0724 119.669 94.0548 119.531 94.0548 117.364C94.0548 114.967 92.4412 113.814 90.8277 113.814C88.7532 113.814 87.4163 114.736 86.1716 116.58H86.0794C86.0794 114.46 84.6042 113.814 82.8524 113.814C81.1927 113.814 79.4409 114.921 79.4409 117.134V135.205ZM94.8849 135.205C94.8849 137.418 96.2679 138.893 98.2041 138.893C100.14 138.893 101.523 137.418 101.523 135.205V127.137H101.616L109.729 137.141C110.79 138.432 111.712 139.17 112.91 139.17C114.662 139.17 116.045 137.787 116.045 136.035C116.045 135.297 115.814 134.514 115.215 133.822L107.424 124.694L113.325 119.439C114.293 118.563 114.616 117.779 114.616 116.811C114.616 115.336 113.463 113.814 111.804 113.814C110.928 113.814 109.868 114.229 108.807 115.244L101.523 122.297V106.807C101.523 104.594 100.14 103.119 98.2041 103.119C96.2679 103.119 94.8849 104.594 94.8849 106.807V135.205ZM117.843 135.205C117.843 137.418 119.226 138.893 121.162 138.893C123.098 138.893 124.481 137.418 124.481 135.205V117.502C124.481 115.29 123.098 113.814 121.162 113.814C119.226 113.814 117.843 115.29 117.843 117.502V135.205ZM121.162 103.857C119.18 103.857 117.428 105.609 117.428 107.499C117.428 109.527 119.18 111.325 121.162 111.325C123.237 111.325 124.896 109.573 124.896 107.499C124.896 105.562 123.144 103.857 121.162 103.857ZM128.155 135.205C128.155 137.418 129.538 138.893 131.474 138.893C133.41 138.893 134.793 137.418 134.793 135.205V123.634C134.793 121.052 136.314 119.07 139.034 119.07C141.432 119.07 143.368 120.545 143.368 123.634V135.205C143.368 137.418 144.751 138.893 146.687 138.893C148.623 138.893 150.006 137.418 150.006 135.205V122.481C150.006 116.857 146.134 113.538 140.924 113.538C137.79 113.538 135.807 114.46 134.516 116.258C134.286 114.736 133.18 113.814 131.474 113.814C129.538 113.814 128.155 115.29 128.155 117.502V135.205ZM176.452 117.502C176.452 115.29 175.069 113.814 173.133 113.814C171.289 113.814 170.229 114.829 169.814 116.58C168.569 114.552 165.988 113.538 163.729 113.538C157.044 113.538 152.803 119.761 152.803 126.446C152.803 133.038 156.076 139.17 163.037 139.17C166.08 139.17 168.339 138.063 169.722 136.035H169.814V137.602C169.814 140.968 167.417 142.858 164.19 142.858C160.363 142.858 158.012 140.783 155.892 140.783C154.601 140.783 153.218 142.443 153.218 143.687C153.218 147.329 160.963 148.666 163.683 148.666C171.243 148.666 176.452 144.656 176.452 136.68V117.502ZM169.814 126.538C169.814 129.765 168.154 133.084 164.605 133.084C161.147 133.084 159.441 129.857 159.441 126.308C159.441 123.219 161.147 119.623 164.605 119.623C168.246 119.623 169.814 123.311 169.814 126.538Z" fill="#053361"/>
</g>
<defs>
<filter id="filter0_d" x="0.382812" y="0" width="180.069" height="156.666" filterUnits="userSpaceOnUse" color-interpolation-filters="sRGB">
<feFlood flood-opacity="0" result="BackgroundImageFix"/>
<feColorMatrix in="SourceAlpha" type="matrix" values="0 0 0 0 0 0 0 0 0 0 0 0 0 0 0 0 0 0 127 0"/>
<feOffset dy="4"/>
<feGaussianBlur stdDeviation="2"/>
<feColorMatrix type="matrix" values="0 0 0 0 0 0 0 0 0 0 0 0 0 0 0 0 0 0 0.25 0"/>
<feBlend mode="normal" in2="BackgroundImageFix" result="effect1_dropShadow"/>
<feBlend mode="normal" in="SourceGraphic" in2="effect1_dropShadow" result="shape"/>
</filter>
</defs>
</svg>
