<svg width="301" height="301" viewBox="0 0 301 301" fill="none" xmlns="http://www.w3.org/2000/svg">
<g filter="url(#filter0_d)">
<rect x="4" width="293" height="293" rx="101.431" fill="#FFD900"/>
</g>
<g filter="url(#filter1_d)">
<path d="M163.202 70H137.096H111.804V71.4639C113.43 82.6055 123.027 91.2261 134.575 91.2261H163.039C171.416 91.2261 178.166 97.9762 178.166 106.353V108.63C178.166 117.006 171.416 123.757 163.039 123.757H134.656H134.575C123.027 123.757 113.349 132.377 111.804 143.519C111.641 144.576 111.56 145.715 111.56 146.853V173.04H137.096V155.718C137.096 149.781 141.894 144.983 147.831 144.983H164.178C174.506 144.983 183.94 140.754 190.69 134.004C198.009 126.684 202.401 116.193 201.587 104.808C200.286 85.0453 183.126 70 163.202 70Z" fill="#053361"/>
<path d="M138.967 120.422H154.907C157.509 117.25 159.217 113.103 159.217 108.467C159.217 102.612 156.614 97.4882 152.629 94.3165H138.885C138.804 94.3165 140.675 107.247 138.967 120.422Z" fill="#053361"/>
<path d="M119.855 120.422H108.713C106.843 117.25 105.704 113.103 105.704 108.467C105.704 102.612 107.575 97.4882 110.34 94.3165H119.936C119.936 94.3165 118.635 107.247 119.855 120.422Z" fill="#053361"/>
<path d="M101.068 120.422H96.9208C96.1889 117.25 95.7822 113.103 95.7822 108.467C95.7822 102.612 96.5142 97.4882 97.5714 94.3165H101.231C101.15 94.3165 97.5714 107.41 101.068 120.422Z" fill="#053361"/>
<path d="M173.503 102.061C174.087 101.049 172.668 99.1371 170.334 97.7897C168.001 96.4422 165.635 96.1697 165.051 97.181C164.467 98.1923 165.886 100.105 168.22 101.452C170.554 102.799 172.919 103.072 173.503 102.061Z" fill="#053361"/>
<path d="M170.337 117.698C172.671 116.351 174.09 114.439 173.506 113.428C172.922 112.416 170.557 112.689 168.223 114.036C165.889 115.384 164.47 117.296 165.054 118.307C165.638 119.318 168.003 119.046 170.337 117.698Z" fill="#053361"/>
<path d="M62.7979 205.205C62.7979 207.418 64.1809 208.893 66.1171 208.893C68.0534 208.893 69.4364 207.418 69.4364 205.205V187.502C69.4364 185.29 68.0534 183.814 66.1171 183.814C64.1809 183.814 62.7979 185.29 62.7979 187.502V205.205ZM66.1171 173.857C64.1348 173.857 62.383 175.609 62.383 177.499C62.383 179.527 64.1348 181.325 66.1171 181.325C68.1917 181.325 69.8513 179.573 69.8513 177.499C69.8513 175.562 68.0995 173.857 66.1171 173.857ZM85.6295 205.297C85.6295 207.602 87.1047 208.893 89.087 208.893C91.0693 208.893 92.5445 207.602 92.5445 205.297V197.737H97.6617C103.977 197.737 109.187 193.542 109.187 186.811C109.187 180.219 104.162 175.793 97.3851 175.793H89.2253C86.9203 175.793 85.6295 177.222 85.6295 179.389V205.297ZM92.5445 181.878H97.2468C100.151 181.878 101.995 183.999 101.995 186.765C101.995 189.531 100.151 191.652 97.2468 191.652H92.5445V181.878ZM133.743 188.148C133.743 186.442 133.743 183.814 130.562 183.814C128.948 183.814 127.565 184.967 127.381 186.58C125.906 184.506 123.509 183.538 121.065 183.538C114.98 183.538 110.093 189.116 110.093 196.4C110.093 203.868 114.842 209.17 121.065 209.17C123.601 209.17 125.675 208.109 127.381 206.081C127.842 207.833 128.626 208.893 130.562 208.893C133.743 208.893 133.743 206.265 133.743 204.56V188.148ZM116.732 196.4C116.732 193.219 118.345 189.623 121.987 189.623C125.491 189.623 127.104 193.219 127.104 196.4C127.104 199.581 125.445 203.084 121.987 203.084C118.391 203.084 116.732 199.581 116.732 196.4ZM137.441 205.205C137.441 207.418 138.824 208.893 140.76 208.893C142.696 208.893 144.079 207.418 144.079 205.205V195.017C144.079 192.389 146.108 191.513 148.09 190.591C150.072 189.669 152.055 189.531 152.055 187.364C152.055 184.967 150.441 183.814 148.828 183.814C146.753 183.814 145.416 184.736 144.172 186.58H144.079C144.079 184.46 142.604 183.814 140.852 183.814C139.193 183.814 137.441 184.921 137.441 187.134V205.205ZM152.885 205.205C152.885 207.418 154.268 208.893 156.204 208.893C158.14 208.893 159.523 207.418 159.523 205.205V197.137H159.616L167.729 207.141C168.79 208.432 169.712 209.17 170.91 209.17C172.662 209.17 174.045 207.787 174.045 206.035C174.045 205.297 173.814 204.514 173.215 203.822L165.424 194.694L171.325 189.439C172.293 188.563 172.616 187.779 172.616 186.811C172.616 185.336 171.463 183.814 169.804 183.814C168.928 183.814 167.868 184.229 166.807 185.244L159.523 192.297V176.807C159.523 174.594 158.14 173.119 156.204 173.119C154.268 173.119 152.885 174.594 152.885 176.807V205.205ZM175.843 205.205C175.843 207.418 177.226 208.893 179.162 208.893C181.098 208.893 182.481 207.418 182.481 205.205V187.502C182.481 185.29 181.098 183.814 179.162 183.814C177.226 183.814 175.843 185.29 175.843 187.502V205.205ZM179.162 173.857C177.18 173.857 175.428 175.609 175.428 177.499C175.428 179.527 177.18 181.325 179.162 181.325C181.237 181.325 182.896 179.573 182.896 177.499C182.896 175.562 181.144 173.857 179.162 173.857ZM186.155 205.205C186.155 207.418 187.538 208.893 189.474 208.893C191.41 208.893 192.793 207.418 192.793 205.205V193.634C192.793 191.052 194.314 189.07 197.034 189.07C199.432 189.07 201.368 190.545 201.368 193.634V205.205C201.368 207.418 202.751 208.893 204.687 208.893C206.623 208.893 208.006 207.418 208.006 205.205V192.481C208.006 186.857 204.134 183.538 198.924 183.538C195.79 183.538 193.807 184.46 192.516 186.258C192.286 184.736 191.18 183.814 189.474 183.814C187.538 183.814 186.155 185.29 186.155 187.502V205.205ZM234.452 187.502C234.452 185.29 233.069 183.814 231.133 183.814C229.289 183.814 228.229 184.829 227.814 186.58C226.569 184.552 223.988 183.538 221.729 183.538C215.044 183.538 210.803 189.761 210.803 196.446C210.803 203.038 214.076 209.17 221.037 209.17C224.08 209.17 226.339 208.063 227.722 206.035H227.814V207.602C227.814 210.968 225.417 212.858 222.19 212.858C218.363 212.858 216.012 210.783 213.892 210.783C212.601 210.783 211.218 212.443 211.218 213.687C211.218 217.329 218.963 218.666 221.683 218.666C229.243 218.666 234.452 214.656 234.452 206.68V187.502ZM227.814 196.538C227.814 199.765 226.154 203.084 222.605 203.084C219.147 203.084 217.441 199.857 217.441 196.308C217.441 193.219 219.147 189.623 222.605 189.623C226.246 189.623 227.814 193.311 227.814 196.538Z" fill="#053361"/>
</g>
<defs>
<filter id="filter0_d" x="0" y="0" width="301" height="301" filterUnits="userSpaceOnUse" color-interpolation-filters="sRGB">
<feFlood flood-opacity="0" result="BackgroundImageFix"/>
<feColorMatrix in="SourceAlpha" type="matrix" values="0 0 0 0 0 0 0 0 0 0 0 0 0 0 0 0 0 0 127 0"/>
<feOffset dy="4"/>
<feGaussianBlur stdDeviation="2"/>
<feColorMatrix type="matrix" values="0 0 0 0 0 0 0 0 0 0 0 0 0 0 0 0 0 0 0.25 0"/>
<feBlend mode="normal" in2="BackgroundImageFix" result="effect1_dropShadow"/>
<feBlend mode="normal" in="SourceGraphic" in2="effect1_dropShadow" result="shape"/>
</filter>
<filter id="filter1_d" x="58.3828" y="70" width="180.069" height="156.666" filterUnits="userSpaceOnUse" color-interpolation-filters="sRGB">
<feFlood flood-opacity="0" result="BackgroundImageFix"/>
<feColorMatrix in="SourceAlpha" type="matrix" values="0 0 0 0 0 0 0 0 0 0 0 0 0 0 0 0 0 0 127 0"/>
<feOffset dy="4"/>
<feGaussianBlur stdDeviation="2"/>
<feColorMatrix type="matrix" values="0 0 0 0 0 0 0 0 0 0 0 0 0 0 0 0 0 0 0.25 0"/>
<feBlend mode="normal" in2="BackgroundImageFix" result="effect1_dropShadow"/>
<feBlend mode="normal" in="SourceGraphic" in2="effect1_dropShadow" result="shape"/>
</filter>
</defs>
</svg>
