<svg width="20" height="20" viewBox="0 0 20 20" fill="none" xmlns="http://www.w3.org/2000/svg">
<path d="M12.0691 4.88881C12.9939 5.46861 13.6423 6.44977 13.7604 7.58867C14.1375 7.76488 14.5561 7.86622 14.9999 7.86622C16.62 7.86622 17.9331 6.5531 17.9331 4.93323C17.9331 3.31312 16.62 2 14.9999 2C13.3952 2.0005 12.0936 3.29015 12.0691 4.88881ZM10.1475 10.8945C11.7676 10.8945 13.0807 9.58118 13.0807 7.96131C13.0807 6.34145 11.7674 5.02833 10.1475 5.02833C8.52764 5.02833 7.21378 6.34169 7.21378 7.96156C7.21378 9.58143 8.52764 10.8945 10.1475 10.8945ZM11.3917 11.0945H8.90278C6.8319 11.0945 5.14714 12.7795 5.14714 14.8504V17.8942L5.15487 17.9418L5.36453 18.0075C7.34082 18.625 9.05778 18.8309 10.471 18.8309C13.2312 18.8309 14.8312 18.0439 14.9297 17.9938L15.1257 17.8947H15.1466V14.8504C15.1474 12.7795 13.4626 11.0945 11.3917 11.0945ZM16.2446 8.06639H13.7749C13.7482 9.05454 13.3263 9.94434 12.6592 10.5843C14.4999 11.1317 15.8468 12.8386 15.8468 14.8549V15.7928C18.2853 15.7035 19.6905 15.0124 19.7831 14.9659L19.979 14.8666H20V11.8218C20 9.75116 18.3152 8.06639 16.2446 8.06639ZM5.00062 7.86672C5.57444 7.86672 6.10832 7.69924 6.56059 7.41395C6.70436 6.47623 7.20704 5.65681 7.92512 5.09872C7.92812 5.0438 7.93336 4.98939 7.93336 4.93398C7.93336 3.31387 6.61999 2.00075 5.00062 2.00075C3.38026 2.00075 2.06739 3.31387 2.06739 4.93398C2.06739 6.55335 3.38026 7.86672 5.00062 7.86672ZM7.63484 10.5843C6.97092 9.94759 6.55061 9.06252 6.51991 8.08037C6.4283 8.07363 6.3377 8.06639 6.24435 8.06639H3.75565C1.68476 8.06639 0 9.75116 0 11.8218V14.8661L0.00773743 14.913L0.217397 14.9792C1.80282 15.4741 3.21777 15.7022 4.44677 15.7741V14.8549C4.44727 12.8386 5.79359 11.1322 7.63484 10.5843Z" fill="#6D747A"/>
</svg>
