<svg width="40" height="40" viewBox="0 0 40 40" fill="none" xmlns="http://www.w3.org/2000/svg">
<path d="M26.3681 38.9586C26.1598 39.029 25.9502 39.0972 25.7391 39.16C25.9509 39.0965 26.1598 39.0283 26.3681 38.9586Z" fill="#F0F1F2"/>
<path d="M27.413 38.5752C27.1882 38.6649 26.9633 38.7531 26.7344 38.8345C26.9633 38.7524 27.1889 38.6649 27.413 38.5752Z" fill="#F0F1F2"/>
<path d="M20 40C31.0457 40 40 31.0457 40 20C40 8.9543 31.0457 0 20 0C8.9543 0 0 8.9543 0 20C0 31.0457 8.9543 40 20 40Z" fill="#6D747A"/>
<path d="M25.3356 39.2744C25.1315 39.331 24.926 39.3848 24.7184 39.4351C24.926 39.3848 25.1315 39.331 25.3356 39.2744Z" fill="#F0F1F2"/>
<path d="M18.5509 39.942C18.3068 39.9247 18.0633 39.9061 17.8226 39.8799C18.064 39.9061 18.3075 39.9247 18.5509 39.942Z" fill="#F0F1F2"/>
<path d="M15.2806 39.4344C15.0737 39.384 14.8682 39.3302 14.6633 39.2737C14.8682 39.3309 15.0737 39.3847 15.2806 39.4344Z" fill="#F0F1F2"/>
<path d="M17.4088 39.8275C17.1902 39.7992 16.9723 39.7695 16.7557 39.7344C16.9716 39.7695 17.1902 39.7985 17.4088 39.8275Z" fill="#F0F1F2"/>
<path d="M19.9997 39.9999C19.6315 39.9999 19.2666 39.9882 18.9032 39.9689C19.2666 39.9882 19.6315 39.9999 19.9997 39.9999Z" fill="#F0F1F2"/>
<path d="M16.3289 39.6579C16.1192 39.6192 15.9103 39.5779 15.7034 39.5323C15.9103 39.5779 16.1192 39.6192 16.3289 39.6579Z" fill="#F0F1F2"/>
<path d="M12.2934 38.4592C11.9824 38.3289 11.6748 38.1923 11.3721 38.0475C11.6755 38.1923 11.9831 38.3296 12.2934 38.4592Z" fill="#F0F1F2"/>
<path d="M13.2649 38.8344C13.0366 38.7523 12.8111 38.6647 12.5863 38.5751C12.8111 38.6647 13.0366 38.7523 13.2649 38.8344Z" fill="#F0F1F2"/>
<path d="M21.0966 39.9689C20.7331 39.9882 20.3683 39.9999 20 39.9999C20.3683 39.9999 20.7331 39.9882 21.0966 39.9689Z" fill="#F0F1F2"/>
<path d="M22.1772 39.8799C21.9359 39.9061 21.6924 39.9247 21.449 39.942C21.6924 39.9247 21.9359 39.9061 22.1772 39.8799Z" fill="#F0F1F2"/>
<path d="M24.297 39.5323C24.0894 39.5779 23.8812 39.6192 23.6715 39.6579C23.8805 39.6192 24.0894 39.5779 24.297 39.5323Z" fill="#F0F1F2"/>
<path d="M23.2444 39.7338C23.0279 39.7689 22.8099 39.7986 22.5913 39.8269C22.8092 39.7986 23.0279 39.7696 23.2444 39.7338Z" fill="#F0F1F2"/>
<path d="M28.6234 38.049C28.322 38.1931 28.0158 38.3296 27.7062 38.4593C28.0158 38.3296 28.322 38.1938 28.6234 38.049Z" fill="#F0F1F2"/>
<path d="M14.2603 39.16C14.0486 39.0965 13.8396 39.0283 13.6313 38.9586C13.8396 39.0283 14.0486 39.0965 14.2603 39.16Z" fill="#F0F1F2"/>
<path d="M27.7062 38.4592C27.6097 38.4999 27.5111 38.5358 27.4138 38.5744C27.5104 38.5358 27.609 38.4999 27.7062 38.4592Z" fill="#F0F1F2"/>
<path d="M28.6509 38.0365C28.6419 38.0406 28.6323 38.0448 28.6233 38.0489C28.6323 38.0448 28.6419 38.0413 28.6509 38.0365Z" fill="#F0F1F2"/>
<path d="M15.7025 39.5323C15.5611 39.5013 15.4204 39.4689 15.2804 39.4351C15.4204 39.4689 15.5611 39.5013 15.7025 39.5323Z" fill="#F0F1F2"/>
<path d="M16.755 39.7337C16.6123 39.7102 16.4702 39.684 16.3281 39.6578C16.4709 39.684 16.6123 39.7109 16.755 39.7337Z" fill="#F0F1F2"/>
<path d="M18.9032 39.9689C18.7853 39.9627 18.668 39.9503 18.5508 39.942C18.6687 39.9503 18.7853 39.9627 18.9032 39.9689Z" fill="#F0F1F2"/>
<path d="M17.8225 39.8799C17.6839 39.8648 17.5466 39.8454 17.4087 39.8275C17.5466 39.8454 17.6839 39.8648 17.8225 39.8799Z" fill="#F0F1F2"/>
<path d="M11.3729 38.0476C11.3653 38.0441 11.3571 38.0407 11.3495 38.0372C11.3571 38.0407 11.3653 38.0441 11.3729 38.0476Z" fill="#F0F1F2"/>
<path d="M21.4488 39.942C21.3309 39.9503 21.2144 39.9627 21.0964 39.9689C21.2144 39.9627 21.3309 39.9503 21.4488 39.942Z" fill="#F0F1F2"/>
<path d="M25.7389 39.1599C25.6051 39.1999 25.4706 39.2372 25.3354 39.2744C25.4706 39.2372 25.6051 39.1999 25.7389 39.1599Z" fill="#F0F1F2"/>
<path d="M26.7349 38.8345C26.6135 38.8779 26.4907 38.9172 26.3687 38.9586C26.4907 38.9172 26.6135 38.8779 26.7349 38.8345Z" fill="#F0F1F2"/>
<path d="M12.5867 38.5751C12.4895 38.5365 12.3909 38.5 12.2943 38.46C12.3909 38.5 12.4895 38.5358 12.5867 38.5751Z" fill="#F0F1F2"/>
<path d="M13.6315 38.9586C13.5094 38.9172 13.3859 38.8779 13.2653 38.8345C13.3859 38.8779 13.5087 38.9172 13.6315 38.9586Z" fill="#F0F1F2"/>
<path d="M22.5908 39.8275C22.4529 39.8454 22.3156 39.8654 22.177 39.8799C22.3156 39.8648 22.4529 39.8454 22.5908 39.8275Z" fill="#F0F1F2"/>
<path d="M24.7192 39.4344C24.5792 39.4682 24.4385 39.5007 24.2971 39.5317C24.4385 39.5013 24.5792 39.4689 24.7192 39.4344Z" fill="#F0F1F2"/>
<path d="M23.6708 39.6578C23.5287 39.684 23.3873 39.7109 23.2439 39.7337C23.3873 39.7109 23.5287 39.684 23.6708 39.6578Z" fill="#F0F1F2"/>
<path d="M14.6639 39.2744C14.5295 39.2372 14.3943 39.1999 14.2605 39.1599C14.3943 39.1999 14.5288 39.2372 14.6639 39.2744Z" fill="#F0F1F2"/>
<path d="M24.5777 21.3752C26.806 19.8917 28.2756 17.36 28.2756 14.4828C28.2756 9.91243 24.5701 6.20691 19.9998 6.20691C15.4294 6.20691 11.7239 9.91243 11.7239 14.4828C11.7239 17.36 13.1936 19.8917 15.4218 21.3752C15.4218 21.3752 15.4225 21.3759 15.4232 21.3759C15.4225 21.3759 15.4225 21.3752 15.4225 21.3752C10.0887 22.9828 5.93563 27.3117 4.59839 32.7579L4.59908 32.7586C4.81701 33.0214 5.04322 33.2779 5.27425 33.5297C5.33011 33.591 5.38873 33.6497 5.44597 33.7097C5.62391 33.8986 5.80391 34.0848 5.98873 34.2669C6.06529 34.3421 6.14322 34.4145 6.22115 34.4883C6.39218 34.651 6.56529 34.8117 6.74184 34.9683C6.82942 35.0455 6.91839 35.1221 7.00666 35.1979C7.17977 35.3462 7.35494 35.4917 7.53356 35.6338C7.62735 35.709 7.72184 35.7828 7.81632 35.8566C7.99701 35.9959 8.18046 36.131 8.36597 36.2635C8.46184 36.3317 8.55632 36.4014 8.65356 36.4683C8.84942 36.6035 9.04873 36.7331 9.24942 36.8614C9.33977 36.9186 9.42804 36.9779 9.51908 37.0345C9.7508 37.1773 9.98666 37.3138 10.2246 37.4476C10.2874 37.4828 10.3487 37.5207 10.4122 37.5552C10.7198 37.7235 11.0322 37.8848 11.3494 38.0373C11.357 38.0407 11.3653 38.0441 11.3729 38.0476C11.6756 38.1924 11.9832 38.3297 12.2943 38.4593C12.3908 38.5 12.4894 38.5359 12.5867 38.5745C12.8115 38.6641 13.0363 38.7524 13.2653 38.8338C13.3867 38.8773 13.5094 38.9166 13.6315 38.9579C13.8398 39.0283 14.0494 39.0966 14.2605 39.1593C14.3943 39.1993 14.5287 39.2366 14.6639 39.2738C14.868 39.3304 15.0736 39.3841 15.2811 39.4345C15.4211 39.4683 15.5618 39.5007 15.7032 39.5317C15.9108 39.5773 16.1191 39.6186 16.3287 39.6572C16.4708 39.6835 16.6122 39.7104 16.7556 39.7331C16.9722 39.7683 17.1901 39.7979 17.4087 39.8262C17.5467 39.8442 17.6839 39.8642 17.8225 39.8786C18.0639 39.9048 18.3074 39.9235 18.5508 39.9407C18.6687 39.949 18.7853 39.9614 18.9032 39.9676C19.2667 39.9883 19.6315 40 19.9998 40C20.368 40 20.7329 39.9883 21.0963 39.969C21.2143 39.9628 21.3315 39.9504 21.4487 39.9421C21.6929 39.9248 21.9363 39.9062 22.177 39.88C22.3156 39.8648 22.4529 39.8455 22.5908 39.8276C22.8094 39.7993 23.0274 39.7697 23.2439 39.7345C23.3867 39.711 23.5287 39.6848 23.6708 39.6586C23.8805 39.62 24.0894 39.5786 24.2963 39.5331C24.4377 39.5021 24.5784 39.4697 24.7184 39.4359C24.9253 39.3855 25.1308 39.3317 25.3356 39.2752C25.4701 39.2379 25.6053 39.2007 25.7391 39.1607C25.9508 39.0973 26.1598 39.029 26.368 38.9593C26.4901 38.9179 26.6136 38.8786 26.7343 38.8352C26.9625 38.7531 27.188 38.6655 27.4129 38.5759C27.5101 38.5373 27.6087 38.5007 27.7053 38.4607C28.0149 38.331 28.3211 38.1952 28.6225 38.0504C28.6315 38.0462 28.6411 38.0421 28.6501 38.0379C28.9674 37.8855 29.2798 37.7241 29.5874 37.5559C29.6508 37.5214 29.7122 37.4835 29.7749 37.4483C30.0129 37.3145 30.2487 37.1779 30.4805 37.0352C30.5715 36.9793 30.6605 36.92 30.7501 36.8621C30.9508 36.7338 31.1501 36.6035 31.346 36.469C31.4425 36.4021 31.5377 36.3331 31.6336 36.2641C31.8191 36.131 32.0025 35.9959 32.1832 35.8573C32.2784 35.7841 32.3722 35.7097 32.466 35.6345C32.6439 35.4924 32.8198 35.3469 32.9929 35.1986C33.0818 35.1228 33.1708 35.0462 33.2577 34.969C33.4343 34.8124 33.6074 34.6517 33.7784 34.489C33.8556 34.4152 33.9343 34.3421 34.0108 34.2676C34.1956 34.0855 34.3763 33.8993 34.5536 33.7104C34.6101 33.6497 34.6687 33.591 34.7253 33.5304C34.9563 33.2786 35.1825 33.0221 35.4005 32.7593L35.4011 32.7586C34.0646 27.3117 29.9115 22.9828 24.5777 21.3752Z" fill="#F0F1F2"/>
</svg>
